Coordinates
version=1
nRows=11
nColumns=36
inDegrees=yes

Units are S.I. units (second, meters, Newtons, ...)
If the header above contains a line with 'inDegrees', this indicates whether rotational values are in degrees (yes) or radians (no).

endheader
time	pelvis_tilt	pelvis_list	pelvis_rotation	pelvis_tx	pelvis_ty	pelvis_tz	hip_flexion_r	hip_adduction_r	hip_rotation_r	knee_angle_r	knee_angle_r_beta	ankle_angle_r	subtalar_angle_r	mtp_angle_r	hip_flexion_l	hip_adduction_l	hip_rotation_l	knee_angle_l	knee_angle_l_beta	ankle_angle_l	subtalar_angle_l	mtp_angle_l	lumbar_extension	lumbar_bending	lumbar_rotation	arm_flex_r	arm_add_r	arm_rot_r	elbow_flex_r	pro_sup_r	arm_flex_l	arm_add_l	arm_rot_l	elbow_flex_l	pro_sup_l
      5.90833330	    -10.69233018	     -0.78112234	     11.56737422	      0.38278972	      1.13590719	     -0.06011096	     17.51154155	     -5.56527195	     -6.79728768	     12.40529532	      0.21651325	    -18.48357999	    -15.45164442	     -7.49999987	     26.60187171	     -7.16087059	     -3.58222190	     18.64935698	      0.32549268	    -27.27054679	    -11.93352726	     -7.49999987	     -3.62557300	     -4.99013506	      1.85902956	     93.81581580	    -26.18892395	     18.13828611	    109.62341064	     91.08132707	    104.84149609	    -37.39291161	     46.71790930	    108.35212441	     89.40401733
      5.91250000	    -10.61920164	     -0.69771144	     11.48642185	      0.38435620	      1.13739686	     -0.05724310	     17.48481801	     -5.59422157	     -6.83965896	     12.13874139	      0.21186100	    -19.34013597	    -15.56062616	     -7.49999987	     26.34278833	     -7.08862654	     -2.85815353	     18.22163874	      0.31802759	    -27.05734033	    -11.20481279	     -7.49999987	     -3.87427380	     -5.07751017	      1.91946462	     92.63136256	    -26.09147670	     18.12250357	    110.89593555	     91.11485598	    103.27760368	    -38.47060731	     46.11809124	    109.50729858	     89.39494103
      5.91666670	    -10.40425486	     -0.59663086	     11.48395017	      0.38358375	      1.12478319	     -0.05930771	     17.64498976	     -5.74843272	     -6.83081840	     12.37067434	      0.21590900	    -19.41585385	    -15.93662295	     -7.49999987	     26.43992172	     -7.07853827	     -2.02918488	     18.53114763	      0.32342954	    -25.99305035	    -10.54212764	     -7.49999987	     -4.15470548	     -4.83906930	      1.69924825	     92.28593048	    -25.30774304	     18.58885011	    110.89531680	     92.90114832	    101.91743341	    -39.50273186	     45.21522156	    110.43550374	     91.22514230
      5.92083330	    -10.09193216	     -0.62546521	     11.59439617	      0.38676740	      1.11699610	     -0.05866098	     17.67019254	     -5.79175142	     -6.94896118	     12.86845017	      0.22459683	    -19.85116692	    -16.40845073	     -7.49999987	     26.23300068	     -7.05512349	     -1.06052472	     18.70346026	      0.32643696	    -25.01191048	     -9.79070413	     -7.49999987	     -4.40764708	     -4.81550144	      1.73735697	     91.57201290	    -25.57947931	     18.39567149	    111.61508002	     92.83839792	    101.20308286	    -39.58549902	     44.96604202	    110.65122691	     91.17598031
      5.92500000	     -9.89739022	     -0.53952553	     11.71195307	      0.38730996	      1.11351737	     -0.05945616	     17.79170921	     -5.85335951	     -6.72739681	     13.30721103	      0.23225465	    -20.35942545	    -16.58681055	     -7.49999987	     26.10285345	     -6.90876450	     -0.12215726	     18.71218706	      0.32658927	    -24.53761361	     -8.92287395	     -7.49999987	     -4.46709182	     -4.75361255	      2.05273737	     91.00488975	    -25.66678420	     18.30220577	    112.03275043	     92.77464338	     99.45774576	    -39.61851170	     43.95255842	    110.98986750	     91.28070871
      5.92916670	     -9.62429814	     -0.51451731	     11.87274136	      0.38882679	      1.10745346	     -0.05931216	     17.71062524	     -5.92719438	     -6.78923846	     13.57907027	      0.23699949	    -20.35200492	    -16.62443241	     -7.49999987	     25.76581421	     -6.80672146	      0.90555390	     18.60116798	      0.32465163	    -23.99250575	     -7.85724246	     -7.49999987	     -4.56939527	     -4.72001198	      2.07550094	     89.91739912	    -25.58173245	     17.97661321	    112.63762519	     92.87165133	     97.78686644	    -39.84877972	     43.19379578	    111.43188333	     91.42829207
      5.93333330	     -9.25616529	     -0.52767019	     12.07992980	      0.38919894	      1.09642908	     -0.05956110	     17.65910637	     -5.95113127	     -6.65809889	     14.05471149	      0.24530099	    -20.26597325	    -16.61711220	     -7.49999987	     25.51868174	     -6.68477638	      2.03253534	     18.82926211	      0.32863262	    -23.50832469	     -7.21891352	     -7.49999987	     -4.75041061	     -4.73399178	      2.04224715	     89.01888578	    -25.89161082	     17.98420943	    113.16355380	     92.73606811	     96.62418555	    -40.26243965	     43.03026465	    111.91908356	     91.30816210
      5.93750000	     -9.09325685	     -0.67339361	     12.20219865	      0.39046381	      1.09113101	     -0.06100067	     17.87707985	     -5.95705581	     -6.29590078	     14.71135024	      0.25676150	    -20.55892925	    -17.04990986	     -7.49999987	     25.51751144	     -6.65167036	      3.10799197	     19.15631396	      0.33434075	    -22.89106138	     -5.94341410	     -7.49999987	     -4.79992342	     -4.41842050	      2.04647523	     88.00849600	    -26.20137177	     17.91880649	    114.21752071	     92.75287737	     94.60630776	    -40.58092565	     41.65375244	    112.98346898	     91.30652345
      5.94166670	     -8.75258924	     -0.69666851	     12.24377248	      0.39185816	      1.09039457	     -0.05886079	     17.78855981	     -5.85819032	     -5.63540127	     15.16392734	      0.26466046	    -21.19799856	    -16.77778301	     -7.49999987	     25.06453486	     -6.53872262	      4.58252993	     19.00663902	      0.33172843	    -22.96665027	     -4.71211579	     -7.49999987	     -4.87119388	     -4.26733230	      2.16842352	     86.35055397	    -26.40785747	     18.38889515	    114.85529688	     92.15591971	     92.34887673	    -40.84516983	     41.57650941	    113.51021925	     90.70602295
      5.94583330	     -8.52951484	     -0.71559375	     12.44557254	      0.39236936	      1.08094944	     -0.05770490	     17.89401369	     -5.79512234	     -5.12303084	     15.82273620	      0.27615884	    -21.38399799	    -16.44860030	     -7.49999987	     25.01244365	     -6.48272400	      5.74559913	     19.37713595	      0.33819482	    -22.38372105	     -2.91232129	     -7.49999987	     -5.02798537	     -4.06807907	      1.93706960	     85.51077223	    -26.16911586	     18.78968344	    115.32908315	     92.79162452	     89.98154085	    -41.42004605	     39.82486128	    114.27338675	     91.37913843
      5.95000000	     -8.39998538	     -0.53987812	     12.49095991	      0.39089345	      1.07590140	     -0.06018744	     18.20624962	     -5.99472702	     -4.44474096	     16.54135290	      0.28870107	    -21.96330244	    -15.81995364	     -7.49999987	     24.99809400	     -6.11661661	      6.92419678	     19.66780521	      0.34326796	    -22.45809810	     -1.78192672	     -7.49999987	     -5.25451391	     -3.96262059	      1.80567570	     84.53749523	    -25.60647896	     19.02910267	    115.50214803	     92.73336375	     87.55191736	    -42.37346596	     38.59178183	    115.23272778	     91.33156151
